<svg width="49" height="49" viewBox="0 0 49 49" fill="none" xmlns="http://www.w3.org/2000/svg">
<path d="M38.0413 0H10.7843C4.82829 0 0 4.82829 0 10.7843V38.0413C0 43.9973 4.82829 48.8256 10.7843 48.8256H38.0413C43.9973 48.8256 48.8256 43.9973 48.8256 38.0413V10.7843C48.8256 4.82829 43.9973 0 38.0413 0Z" fill="url(#paint0_linear_3542_546)"></path>
<g filter="url(#filter0_d_3542_546)">
<path d="M32.173 26.1782C32.2497 26.1782 32.3441 26.1599 32.4562 26.1232C32.5682 26.0865 32.6841 26.0333 32.8039 25.9636C34.146 25.1545 35.2731 24.4184 36.1853 23.7554C37.0974 23.0925 37.8258 22.4378 38.3703 21.7915C38.9148 21.1452 39.3093 20.4488 39.5537 19.7022C39.7981 18.9557 39.9203 18.0873 39.9203 17.0971V8.87598H24.4258V17.0971C24.4258 18.0873 24.5495 18.9486 24.7969 19.6812C25.0443 20.4137 25.4448 21.096 25.9982 21.7279C26.5517 22.3599 27.2831 23.0091 28.1923 23.6756C29.1015 24.3421 30.2152 25.1048 31.5333 25.9636C31.653 26.0403 31.7688 26.0952 31.8805 26.1284C31.9922 26.1616 32.0897 26.1782 32.173 26.1782Z" fill="black"></path>
</g>
<path d="M32.173 26.1782C32.2497 26.1782 32.3441 26.1599 32.4562 26.1232C32.5682 26.0865 32.6841 26.0333 32.8039 25.9636C34.146 25.1545 35.2731 24.4184 36.1853 23.7554C37.0974 23.0925 37.8258 22.4378 38.3703 21.7915C38.9148 21.1452 39.3093 20.4488 39.5537 19.7022C39.7981 18.9557 39.9203 18.0873 39.9203 17.0971V8.87598H24.4258V17.0971C24.4258 18.0873 24.5495 18.9486 24.7969 19.6812C25.0443 20.4137 25.4448 21.096 25.9982 21.7279C26.5517 22.3599 27.2831 23.0091 28.1923 23.6756C29.1015 24.3421 30.2152 25.1048 31.5333 25.9636C31.653 26.0403 31.7688 26.0952 31.8805 26.1284C31.9922 26.1616 32.0897 26.1782 32.173 26.1782Z" fill="#F2F2F7"></path>
<defs>
<filter id="filter0_d_3542_546" x="18.5003" y="2.95054" width="27.347" height="29.1531" filterUnits="userSpaceOnUse" color-interpolation-filters="sRGB">
<feFlood flood-opacity="0" result="BackgroundImageFix"></feFlood>
<feColorMatrix in="SourceAlpha" type="matrix" values="0 0 0 0 0 0 0 0 0 0 0 0 0 0 0 0 0 0 127 0" result="hardAlpha"></feColorMatrix>
<feOffset></feOffset>
<feGaussianBlur stdDeviation="2.96272"></feGaussianBlur>
<feColorMatrix type="matrix" values="0 0 0 0 0 0 0 0 0 0 0 0 0 0 0 0 0 0 0.2 0"></feColorMatrix>
<feBlend mode="normal" in2="BackgroundImageFix" result="effect1_dropShadow_3542_546"></feBlend>
<feBlend mode="normal" in="SourceGraphic" in2="effect1_dropShadow_3542_546" result="shape"></feBlend>
</filter>
<linearGradient id="paint0_linear_3542_546" x1="2441.28" y1="0" x2="2441.28" y2="4882.56" gradientUnits="userSpaceOnUse">
<stop stop-color="#0ADBC9"></stop>
<stop offset="1" stop-color="#04B599"></stop>
</linearGradient>
</defs>
</svg>