<svg width="45" height="48" viewBox="0 0 45 48" fill="none" xmlns="http://www.w3.org/2000/svg">
<path d="M41.1418 1.94484C41.6813 1.94484 42.1174 2.38086 42.1174 2.92039V18.4728V19.439C42.1299 21.3556 42.1456 23.749 41.8099 26.2867C41.421 29.2447 40.6493 31.6507 39.4636 33.6426C35.5959 40.1264 28.6478 44.8787 22.1263 45.5123C22.0949 45.5155 22.0636 45.5186 22.0322 45.5186C22.0008 45.5186 21.9695 45.5186 21.9381 45.5123C15.4103 44.8724 8.46226 40.1233 4.60081 33.6426C3.40882 31.6507 2.64343 29.2416 2.25446 26.2867C1.92196 23.749 1.93764 21.3587 1.95333 19.439V18.4728L1.95646 2.92039C1.95646 2.38086 2.39248 1.94484 2.93202 1.94484H41.1418ZM41.1418 0H2.92888C1.31968 0 0.00848804 1.3112 0.00848804 2.92039V19.4296C-0.010333 21.2897 -0.029154 23.8462 0.322172 26.5376C0.748781 29.7654 1.59886 32.4129 2.92574 34.6369C4.96469 38.0561 7.81293 41.0737 11.1662 43.3699C14.5509 45.6849 18.199 47.0933 21.7217 47.4415C21.822 47.454 21.9256 47.4603 22.0291 47.4603C22.1326 47.4603 22.233 47.454 22.3365 47.4415C25.856 47.0933 29.5041 45.688 32.8888 43.373C36.2421 41.0769 39.0934 38.0561 41.1355 34.6369C42.4655 32.4098 43.3156 29.7623 43.7391 26.5408C44.0904 23.8744 44.0747 21.4152 44.0622 19.4358V18.4665V2.92353C44.0622 1.3112 42.751 0.00313683 41.1418 0.00313683V0Z" fill="#0156FC"></path>
<path d="M38.4833 21.6348C38.7687 21.8513 39.1765 21.6474 39.1765 21.2898L39.1671 19.323V5.3076C39.1702 5.06607 38.9757 4.87158 38.7342 4.87158H5.32691C5.08537 4.87158 4.89089 5.06607 4.89089 5.3076V13.9276C4.89089 14.2978 4.97558 14.6616 5.14183 14.991C5.30808 15.3204 5.54648 15.609 5.84448 15.8285L30.9737 34.6213C31.1932 34.7844 31.2089 35.1013 31.0082 35.2895C30.5439 35.7286 30.0546 36.1396 29.5464 36.5285C29.3896 36.6477 29.1763 36.6477 29.0226 36.5317L5.58413 18.9685C5.29867 18.7552 4.89089 18.956 4.89089 19.3167C4.89089 22.3281 4.62425 27.9461 7.15568 32.2499C9.98197 37.0586 14.8347 40.8542 19.8285 42.0839C20.55 42.2595 21.2714 42.385 21.9929 42.4509C22.0211 42.454 22.0494 42.454 22.0745 42.4509C25.343 42.156 28.6681 40.6629 31.5226 38.4075C32.2378 37.8397 32.9248 37.228 33.5772 36.5724C34.8633 35.2769 35.9863 33.8277 36.9117 32.2561C37.7492 30.8352 38.2794 29.2699 38.615 27.7046C38.6903 27.3658 38.753 27.0239 38.8095 26.6789C38.9569 25.7817 38.593 24.8752 37.8684 24.3325L16.5913 8.42248C16.2588 8.17153 16.4313 7.64141 16.8548 7.64141H19.6717C19.7658 7.64141 19.8567 7.67278 19.9351 7.72924L38.4864 21.638L38.4833 21.6348Z" fill="#0156FC"></path>
</svg>