<svg width="187" height="38" viewBox="0 0 187 38" fill="none" xmlns="http://www.w3.org/2000/svg">
<path fill-rule="evenodd" clip-rule="evenodd" d="M92.4547 12.988L92.4508 9.33977H67.7734L67.7774 12.988H78.4952V28.7348H82.5365V12.988H92.4547ZM109.063 9.33977H95.4307V28.7348H99.472V21.1566H104.19L113.948 28.7348H120.419L110.556 21.1257L110.562 21.1063C113.248 20.918 115.088 20.2139 116.3 19.2117C117.746 18.0163 118.185 16.4917 118.185 15.2482C118.185 14.0047 117.746 12.4801 116.3 11.2847C114.874 10.1061 112.581 9.33977 109.063 9.33977ZM144.71 27.1439L145.13 26.9008V17.5085H129.768L129.772 21.1566H141.212V24.5824C139.845 25.0455 137.883 25.3819 135.119 25.3819C131.991 25.3819 129.151 24.6572 127.123 23.4742C125.087 22.2866 123.987 20.7217 123.987 19.0373C123.987 17.352 125.088 15.7808 127.124 14.5872C129.153 13.3985 131.992 12.6681 135.119 12.6681C139.181 12.6681 142.199 13.7518 143.527 14.8181L144.908 15.9274V11.1705L144.483 10.9282C142.276 9.66805 138.6 8.9707 135.119 8.9707C131.085 8.9707 127.34 9.97341 124.575 11.7126C121.811 13.4512 119.946 15.991 119.946 19.0373C119.946 22.1213 121.755 24.6646 124.51 26.3987C127.258 28.1289 131.006 29.1039 135.119 29.1039C139.705 29.1039 142.71 28.3019 144.71 27.1439ZM170.999 26.8146V22.027L169.605 23.1934C167.952 24.5764 165.329 25.4065 162.149 25.4065C158.742 25.4065 156.194 24.6048 154.522 23.4171C152.864 22.2385 152.054 20.6779 152.054 19.0373C152.054 17.3975 152.863 15.8434 154.521 14.6709C156.192 13.4889 158.74 12.6927 162.149 12.6927C165.469 12.6927 167.937 13.6783 169.391 14.8636L170.776 15.9928V11.2471L170.388 10.9991C168.28 9.65285 165.385 8.99531 162.149 8.99531C153.554 8.99531 148.013 13.4163 148.013 19.0373C148.013 21.9913 149.384 24.5499 151.865 26.3437C154.325 28.1229 157.839 29.1285 162.149 29.1285C165.389 29.1285 168.451 28.5279 170.627 27.0645L170.999 26.8146ZM109.063 17.5085H99.472V12.988H109.063C111.341 12.988 112.613 13.4015 113.292 13.8643C113.927 14.2971 114.094 14.805 114.094 15.2482C114.094 15.6914 113.927 16.1993 113.292 16.6321C112.613 17.0949 111.341 17.5085 109.063 17.5085Z" fill="white" fill-opacity="0.4"></path>
<path fill-rule="evenodd" clip-rule="evenodd" d="M40.2344 28.0551C42.7232 25.8267 44.2884 22.5952 44.2884 18.9996C44.2884 15.404 42.7232 12.1725 40.2344 9.94414C41.4701 9.25661 42.861 8.81272 44.3416 8.67773C46.7058 11.4639 48.131 15.066 48.131 18.9996C48.131 22.9332 46.7058 26.5353 44.3416 29.3215C42.861 29.1865 41.4701 28.7426 40.2344 28.0551Z" fill="white" fill-opacity="0.4"></path>
<path fill-rule="evenodd" clip-rule="evenodd" d="M32.0651 3C33.395 3 34.6872 3.16096 35.9231 3.46439C36.171 3.52527 36.4171 3.60489 36.6626 3.67561C37.3607 3.87669 38.0389 4.12291 38.6938 4.41079L38.6936 4.42144C40.7146 3.50841 42.959 3 45.3226 3C54.1951 3 61.3877 10.1638 61.3877 19.0009C61.3877 27.8379 54.1951 35.0017 45.3226 35.0017C42.9589 35.0017 40.7144 34.4933 38.6934 33.5802L38.6938 33.5984C38.138 33.8428 37.5654 34.0571 36.9781 34.2393C36.4738 34.3957 35.9657 34.5358 35.449 34.6461C34.358 34.8791 33.2259 35.0017 32.0651 35.0017C23.1926 35.0017 16 27.8379 16 19.0009C16 10.1638 23.1926 3 32.0651 3ZM27.9095 30.4286C29.3105 30.9343 30.8292 31.1949 32.4109 31.1588C33.1596 31.1418 33.8911 31.059 34.6 30.9162C31.3206 27.9866 29.2576 23.7337 29.2576 19.0009C29.2576 14.2713 31.3178 10.021 34.5931 7.0917C33.8864 6.94971 33.1572 6.86738 32.4109 6.85038C31.0884 6.82026 29.8101 6.99748 28.6077 7.35191C27.9647 7.54146 27.3317 7.76378 26.8977 7.96572C22.7303 9.9049 19.8428 14.117 19.8428 19.0009C19.8428 23.8136 22.6469 27.9741 26.7165 29.9499C27.1035 30.1377 27.4983 30.2802 27.9095 30.4286ZM57.5449 19.0009C57.5449 25.7241 52.0728 31.1743 45.3226 31.1743C38.5725 31.1743 33.1004 25.7241 33.1004 19.0009C33.1004 12.2777 38.5725 6.82745 45.3226 6.82745C52.0728 6.82745 57.5449 12.2777 57.5449 19.0009Z" fill="white" fill-opacity="0.4"></path>
</svg>