<svg width="187" height="38" viewBox="0 0 187 38" fill="none" xmlns="http://www.w3.org/2000/svg">
<path d="M170.162 13.0499H166.852V31.0521H170.162V13.0499Z" fill="white" fill-opacity="0.4"></path>
<path d="M132.615 31.0354V20.9226C132.615 18.0568 130.473 15.8827 127.624 15.8827C125.203 15.8827 122.732 17.7438 122.732 21.2849V31.052H119.422V6.75805L122.732 6.74158C122.732 6.74158 122.716 14.5486 122.732 14.5321C123.177 14.1533 124.89 12.638 128.299 12.638C132.45 12.638 135.942 16.0968 135.942 20.1979V31.0354H132.615Z" fill="white" fill-opacity="0.4"></path>
<path d="M170.162 6.75806H166.852V10.0686H170.162V6.75806Z" fill="white" fill-opacity="0.4"></path>
<path d="M142.608 27.7084H139.281V31.0354H142.608V27.7084Z" fill="white" fill-opacity="0.4"></path>
<path d="M40.5719 17.5789C40.8025 17.9083 40.9179 18.3036 40.9179 18.7153C40.9179 19.2589 40.7037 19.7695 40.3249 20.1482C39.9462 20.5271 39.4191 20.7412 38.892 20.7412C38.4967 20.7412 38.1015 20.6259 37.7555 20.3954C37.4262 20.1648 37.1626 19.8518 37.0144 19.4895C36.8661 19.1106 36.8167 18.7153 36.8991 18.32C36.9814 17.9247 37.179 17.5624 37.4591 17.2824C37.7391 17.0024 38.1015 16.8048 38.4968 16.7224C38.892 16.6401 39.3037 16.6895 39.6661 16.8377C40.0284 16.9695 40.3414 17.233 40.5719 17.5789Z" fill="white" fill-opacity="0.4"></path>
<path d="M40.5719 27.8556C40.8025 28.185 40.9179 28.5803 40.9179 28.9921C40.9179 29.5356 40.7037 30.0463 40.3249 30.425C39.9462 30.8038 39.4191 31.018 38.892 31.018C38.4967 31.018 38.1015 30.9027 37.7555 30.672C37.4262 30.4415 37.1626 30.1285 37.0144 29.7662C36.8661 29.3874 36.8167 28.9921 36.8991 28.5969C36.9814 28.2016 37.179 27.8392 37.4591 27.5592C37.7391 27.2791 38.1015 27.0815 38.4968 26.9992C38.892 26.9168 39.3037 26.9662 39.6661 27.1145C40.0284 27.2627 40.3414 27.5263 40.5719 27.8556Z" fill="white" fill-opacity="0.4"></path>
<path d="M40.922 6.09875H36.0469V10.974H40.922V6.09875Z" fill="white" fill-opacity="0.4"></path>
<path d="M30.4313 27.8556C30.6619 28.185 30.7772 28.5803 30.7772 28.9921C30.7772 29.5356 30.5631 30.0463 30.1843 30.425C29.8054 30.8038 29.2784 31.018 28.7513 31.018C28.356 31.018 27.9608 30.9027 27.6149 30.672C27.2855 30.4415 27.0219 30.1285 26.8737 29.7662C26.7255 29.3874 26.6761 28.9921 26.7584 28.5969C26.8408 28.2016 27.0384 27.8392 27.3184 27.5592C27.5984 27.2791 27.9608 27.0815 28.356 26.9992C28.7513 26.9168 29.1631 26.9662 29.5254 27.1145C29.9043 27.2627 30.2171 27.5263 30.4313 27.8556Z" fill="white" fill-opacity="0.4"></path>
<path d="M31.1877 16.2606H26.3125V21.1358H31.1877V16.2606Z" fill="white" fill-opacity="0.4"></path>
<path d="M31.3115 6.09875H26.1562V11.254H31.3115V6.09875Z" fill="white" fill-opacity="0.4"></path>
<path d="M21.4344 6.09875H16.0156V11.5175H21.4344V6.09875Z" fill="white" fill-opacity="0.4"></path>
<path d="M20.8752 26.1427H16V31.0178H20.8752V26.1427Z" fill="white" fill-opacity="0.4"></path>
<path d="M21.1552 16.1296H16V21.2849H21.1552V16.1296Z" fill="white" fill-opacity="0.4"></path>
<path d="M61.4083 9.04703C62.8577 9.0635 63.4507 10.1341 63.4507 10.1341L65.5259 8.04233C64.3071 6.7247 62.8249 6 61.3095 6C59.8272 6 58.6084 6.47764 57.6861 7.39998C56.7472 8.3388 56.2861 9.54114 56.2861 10.9905V13.0493H53.4531V15.8987H56.2697V31.0515H59.5802V15.8987H61.8366H65.5259V13.0493H60.519H59.5966V10.9905C59.5966 9.80467 60.2389 9.12938 61.4083 9.04703Z" fill="white" fill-opacity="0.4"></path>
<path d="M109.748 28.1867C106.174 28.1867 103.572 25.6009 103.572 22.0598C103.572 18.568 106.24 15.9163 109.798 15.9163C111.758 15.9163 113.306 17.0528 113.965 17.6292L116.221 15.3728C115.579 14.7469 113.158 12.6387 109.633 12.6387C104.329 12.6387 100.195 16.7728 100.195 22.0433C100.195 27.2973 104.346 31.4149 109.649 31.4149C113.026 31.4149 115.315 29.5703 116.221 28.6644L114.014 26.4904C113.207 27.2479 111.774 28.1867 109.748 28.1867Z" fill="white" fill-opacity="0.4"></path>
<path d="M94.5509 28.3831C93.4474 28.3831 92.6074 27.6419 92.6074 25.4842V15.8985H98.5367V13.0491H92.6074V9.37622H89.2969V25.4842C89.2969 29.5524 91.1744 31.3971 94.5015 31.3971C95.7367 31.3971 97.2685 30.903 98.6027 29.7996L96.5108 27.7078C96.0003 28.1524 95.292 28.3831 94.5509 28.3831Z" fill="white" fill-opacity="0.4"></path>
<path d="M76.6268 28.1206C73.4151 28.1206 71.0927 25.7653 70.6315 23.3277H83.9561H85.8831C85.9325 22.916 85.9655 22.4878 85.9655 22.0595C85.9655 16.8713 81.7491 12.6549 76.5609 12.6549C71.3728 12.6549 67.1562 16.8713 67.1562 22.0595C67.1562 27.2477 71.3728 31.4641 76.5609 31.4641C79.6738 31.4641 82.2596 30.3441 84.022 28.6147L81.9632 26.2924C80.5303 27.5277 78.7349 28.1206 76.6268 28.1206ZM76.6268 15.8996C79.6244 15.8996 81.8149 17.9749 82.4408 20.4783H70.6809C71.3562 17.8596 73.5963 15.8996 76.6268 15.8996Z" fill="white" fill-opacity="0.4"></path>
<path d="M159.46 13.0504V14.9939C159.46 14.9939 157.286 12.6387 153.481 12.6387C148.309 12.6387 144.094 16.8057 144.094 21.928C144.094 27.2479 148.145 31.4149 153.333 31.4149C157.648 31.4149 159.46 29.0432 159.46 29.0432V31.0197H162.77V13.0504H159.46ZM153.778 28.1867C153.68 28.1867 153.564 28.2032 153.448 28.2032C151.752 28.2032 150.22 27.5115 149.1 26.3914C147.981 25.2715 147.288 23.7398 147.288 22.0268C147.288 18.6174 150.056 15.8669 153.481 15.8669C156.907 15.8669 159.674 18.6174 159.674 22.0268C159.674 25.3374 157.056 28.022 153.778 28.1867Z" fill="white" fill-opacity="0.4"></path>
</svg>