<svg width="33" height="33" viewBox="0 0 33 33" fill="none" xmlns="http://www.w3.org/2000/svg">
<path d="M31.7845 20.0388C29.6295 28.6828 20.8741 33.9429 12.2291 31.7878C3.58812 29.6328 -1.67249 20.8773 0.483088 12.2339C2.63715 3.58889 11.3921 -1.67222 20.0345 0.482846C28.679 2.63792 33.9396 11.3943 31.7845 20.0388Z" fill="#F7931A"></path>
<path d="M23.256 13.8369C23.5767 11.6899 21.942 10.5358 19.7067 9.7658L20.4318 6.85741L18.6609 6.41621L17.955 9.24796C17.4901 9.13198 17.0121 9.02257 16.5371 8.91416L17.2481 6.06376L15.4788 5.62256L14.7532 8.52994C14.3679 8.4422 13.9898 8.35547 13.6227 8.26421L13.6247 8.25513L11.1832 7.64552L10.7123 9.53638C10.7123 9.53638 12.0258 9.8374 11.9981 9.85606C12.7151 10.0351 12.8452 10.5095 12.823 10.8857L11.9971 14.199C12.0465 14.2116 12.1105 14.2297 12.1811 14.258L11.9945 14.2116L10.8363 18.853C10.7486 19.0708 10.5262 19.3976 10.025 19.2735C10.0427 19.2992 8.73824 18.9523 8.73824 18.9523L7.85938 20.9793L10.1637 21.5536C10.5923 21.661 11.0123 21.7735 11.4253 21.8794L10.6926 24.8215L12.461 25.2627L13.187 22.3523C13.6696 22.4834 14.1385 22.6044 14.5974 22.7184L13.8743 25.6152L15.6447 26.0564L16.3773 23.1203C19.3961 23.6916 21.6666 23.4611 22.6211 20.7312C23.3911 18.5328 22.5833 17.2647 20.995 16.4372C22.1517 16.1695 23.0235 15.4086 23.256 13.8369ZM19.2106 19.509C18.663 21.7074 14.9619 20.5195 13.7614 20.221L14.7335 16.3238C15.9336 16.6233 19.7808 17.2163 19.2106 19.509ZM19.7576 13.8052C19.2585 15.8049 16.1776 14.7889 15.1777 14.5398L16.0591 11.0052C17.059 11.2543 20.278 11.7192 19.7576 13.8052Z" fill="white"></path>
</svg>