<svg width="32" height="32" viewBox="0 0 32 32" fill="none" xmlns="http://www.w3.org/2000/svg">
<path d="M16.0301 24C11.6019 24 8.01506 20.4198 8.01506 16C8.01506 11.5802 11.6009 8 16.0301 8C17.9212 8.00033 19.7512 8.66981 21.1961 9.88991C22.641 11.11 23.6076 12.802 23.9247 14.6664H32C31.3186 6.45365 24.4329 0 16.0301 0C7.18023 0 0 7.16706 0 16C0 24.8329 7.18023 32 16.0301 32C24.432 32 31.3186 25.5464 32 17.3336H23.9247C23.6076 19.198 22.641 20.89 21.1961 22.1101C19.7512 23.3302 17.9212 23.9997 16.0301 24Z" fill="#0052FF"></path>
</svg>