<svg width="35" height="14" viewBox="0 0 35 14" fill="none" xmlns="http://www.w3.org/2000/svg">
<path d="M32.2168 0.157193C32.4049 0.157194 32.5849 0.234177 32.7147 0.370219L34.4912 2.23123C34.6136 2.35923 34.6818 2.52938 34.6818 2.70633V3.83803C34.6818 4.0174 34.6117 4.18971 34.4865 4.31819L27.9927 10.9842C27.9616 11.0163 27.9439 11.0594 27.9439 11.1043V11.9128C27.9439 12.0078 28.0211 12.0848 28.1159 12.0848H34.5097C34.6046 12.0848 34.6818 12.1618 34.6818 12.2569V13.1744C34.6818 13.2694 34.6046 13.3464 34.5097 13.3464H27.3704C26.9903 13.3464 26.6821 13.0383 26.6821 12.6583V10.8012C26.6821 10.6218 26.7521 10.4496 26.8773 10.3211L33.371 3.65509C33.4024 3.62297 33.4198 3.57986 33.4198 3.53503V3.00503C33.4198 2.9608 33.4029 2.91826 33.3724 2.88625L32.0221 1.47203C31.9896 1.43802 31.9446 1.41878 31.8977 1.41877H29.1922C29.1467 1.41877 29.1028 1.43691 29.0706 1.46917L27.4348 3.10456C27.3674 3.17174 27.2586 3.17174 27.1914 3.10456L26.5424 2.45573C26.4752 2.38855 26.4753 2.27964 26.5425 2.21246L28.3965 0.358739C28.5258 0.229697 28.7008 0.157199 28.8833 0.157193H32.2168ZM22.6717 0.157193C23.9388 0.157193 24.966 1.18415 24.966 2.45097V11.0521L24.9653 11.1114C24.9344 12.3311 23.9509 13.3142 22.7309 13.3451L22.6717 13.3459H19.8511L19.7919 13.3451C18.5718 13.3142 17.5884 12.3311 17.5575 11.1114L17.5567 11.0521V2.45097C17.5567 1.18416 18.584 0.157207 19.8511 0.157193H22.6717ZM14.2139 0C14.3089 9.01099e-06 14.386 0.0770336 14.386 0.172033V5.76737C14.386 5.86237 14.463 5.9394 14.558 5.9394H15.7934C15.8885 5.9394 15.9655 6.01646 15.9655 6.11144V7.02895C15.9655 7.12395 15.8885 7.20098 15.7934 7.20098H14.558C14.463 7.20098 14.386 7.27798 14.386 7.37301V13.1738C14.386 13.2688 14.3089 13.3458 14.2139 13.3458H13.2961C13.2011 13.3458 13.124 13.2688 13.124 13.1738V7.37301C13.124 7.27804 13.047 7.20098 12.952 7.20098H8.61277C8.56723 7.20098 8.52352 7.1829 8.49124 7.15072L6.99292 5.65672C6.92571 5.58967 6.92554 5.48084 6.99249 5.41357L12.3312 0.0506803C12.3635 0.0182491 12.4074 6.9463e-06 12.4532 0H14.2139ZM0.74803 4.23655C0.792809 4.19186 0.865352 4.19186 0.910134 4.23655L4.5411 7.85974L5.93504 6.47276C5.97984 6.42821 6.05229 6.42821 6.09704 6.47287L6.81135 7.18566C6.85631 7.23051 6.8562 7.3034 6.81115 7.34817L5.78103 8.37222V9.1142L9.04854 12.3748C9.09345 12.4195 9.09345 12.4923 9.04854 12.5371L8.33417 13.2499C8.28937 13.2946 8.21687 13.2946 8.17207 13.2499L4.5411 9.62676L0.910134 13.2499C0.865352 13.2946 0.792809 13.2946 0.74803 13.2499L0.0336654 12.5371C-0.0112257 12.4923 -0.0112178 12.4195 0.0336654 12.3748L3.30115 9.1142V8.37222L0.0336654 5.11172C-0.0112178 5.06691 -0.0112252 4.99416 0.0336654 4.94936L0.74803 4.23655ZM18.8186 10.3076V11.0521C18.8186 11.6222 19.2809 12.0843 19.8511 12.0843H22.6717C23.2419 12.0843 23.7041 11.6222 23.7041 11.0521V5.42336L18.8186 10.3076ZM19.8511 1.41877C19.2809 1.41879 18.8186 1.88091 18.8186 2.45097V8.52344L23.7041 3.63925V2.45097C23.7041 1.8809 23.2419 1.41877 22.6717 1.41877H19.8511ZM12.9701 1.26158C12.9292 1.26158 12.8899 1.27793 12.861 1.30694L8.77613 5.41027C8.70913 5.47754 8.70935 5.58637 8.7766 5.65342L9.01298 5.88915C9.04521 5.92133 9.08898 5.9394 9.13451 5.9394H12.952C13.047 5.9394 13.124 5.86237 13.124 5.76737V1.41541C13.124 1.33045 13.0551 1.26158 12.9701 1.26158Z" fill="black"></path>
</svg>