<svg width="49" height="48" viewBox="0 0 49 48" fill="none" xmlns="http://www.w3.org/2000/svg">
<g clip-path="url(#clip0_3542_509)">
<mask id="mask0_3542_509" style="mask-type:luminance" maskUnits="userSpaceOnUse" x="0" y="0" width="49" height="48">
<path d="M48.1692 0H0V47.9154H48.1692V0Z" fill="white"></path>
</mask>
<g mask="url(#mask0_3542_509)">
<path d="M37.1553 36.2105L36.7013 36.7768C33.2485 41.0773 29.1612 44.7692 24.5532 47.7517L24.4963 47.7842C24.3222 47.8721 24.1383 47.9144 23.9544 47.9144C23.7706 47.9144 23.5883 47.8705 23.4126 47.7842L23.341 47.7419C8.88732 37.8263 1.04298 23.877 0.0227797 6.28294L0 5.89569L0.343322 5.71671C5.28 3.13935 10.5763 1.41949 16.089 0.605927L16.8195 0.498537L21.4715 0.0543337C30.7168 -0.350819 39.5862 1.55291 47.8292 5.71183L48.1464 5.87291L48.1578 6.22925C48.2229 8.19806 48.0342 10.1766 47.5981 12.1113L46.438 17.4368C45.1916 22.7494 43.0292 27.7495 40.0092 32.2989L37.1569 36.2122L37.1553 36.2105Z" fill="#32D583"></path>
<path d="M42.6519 10.3272L42.6438 10.0539L42.3997 9.9302C36.0637 6.73291 29.2461 5.27013 22.1389 5.58091L21.7435 5.59881L21.7012 5.99257C21.2521 10.1352 21.8102 14.1965 23.3576 18.0658L23.4698 18.3489L23.7741 18.357C27.6808 18.4514 31.4883 19.2682 35.1037 20.7912C35.2713 20.8563 35.4275 20.9393 35.5707 21.0402C35.1997 22.101 34.7507 23.1375 34.2283 24.1301C33.8997 23.8795 33.5742 23.6224 33.257 23.3621L33.2081 23.3214L33.1496 23.2953C30.9237 22.3175 28.5709 21.7935 26.1578 21.7366L25.2369 21.7138L25.7706 22.4655C28.2682 25.9736 31.5045 28.6892 35.3803 30.5295C35.5154 30.5962 35.6553 30.6304 35.7969 30.6304C35.9384 30.6304 36.0784 30.5962 36.2134 30.5295L36.3241 30.4742L36.3924 30.3717C38.7143 26.875 40.3772 23.0318 41.334 18.9461L41.4088 18.6271L41.1322 18.4514C36.8448 15.7276 32.1098 14.1265 27.0528 13.6888C26.8396 12.6459 26.672 11.585 26.5565 10.5241C31.8902 10.8967 36.9294 12.4506 41.5422 15.1484L42.0873 15.4673L42.2256 14.8522C42.5608 13.365 42.7056 11.8437 42.6568 10.3305L42.6519 10.3272Z" fill="white"></path>
<path d="M28.9169 30.2549L28.8616 30.2192L28.7997 30.1996C26.6454 29.5162 24.4244 29.334 22.1953 29.6578L21.3101 29.7863L21.9284 30.4323C23.3326 31.9016 24.8621 33.257 26.4811 34.4643C25.7212 35.1916 24.9125 35.8734 24.0713 36.4933C24.0551 36.4901 24.0388 36.4819 24.016 36.464C21.0351 34.108 18.4496 31.3272 16.3262 28.1934C18.3553 27.2074 20.5291 26.6509 22.7957 26.537C22.8965 26.5435 22.9974 26.5484 23.0983 26.5484C23.4546 26.5484 23.8094 26.5044 24.1576 26.4166L24.5855 26.3092L24.5676 26.2181L24.7824 26.179L24.4602 25.7755C24.4163 25.6632 24.3431 25.5705 24.2471 25.507C23.3847 24.4185 22.6053 23.2486 21.9317 22.0234L21.8259 21.8314L21.6095 21.7923C21.1718 21.7126 20.7276 21.7126 20.2948 21.7923C18.0461 22.1828 15.856 22.8532 13.7814 23.7855C12.2275 20.3832 11.2268 16.7775 10.8022 13.0547C11.7703 12.6821 12.7628 12.3566 13.7652 12.0833C13.9669 14.55 14.4908 16.9777 15.3239 19.3077L15.376 19.4525L15.8511 19.7682L16.0675 19.6933C17.2407 19.2865 18.4578 19.0116 19.6895 18.8765L20.2199 18.8179L20.0865 18.3021C19.8083 17.2217 19.5073 16.1283 19.1965 15.0528C18.5831 12.2444 18.3585 9.36274 18.5277 6.48762L18.5603 5.92139L17.9989 6.00437C13.7619 6.63081 9.69085 7.95203 5.89641 9.93223L5.63281 10.0705L5.65071 10.3683C6.43498 23.8929 12.4651 34.6173 23.5767 42.2403L23.632 42.2728C23.7671 42.3396 23.907 42.3737 24.0485 42.3737C24.1901 42.3737 24.33 42.3396 24.4651 42.2728L24.509 42.2468C28.0529 39.9542 31.1949 37.1149 33.8487 33.8102L34.1969 33.3758L33.7039 33.1138C32.0621 32.2417 30.4513 31.28 28.9185 30.2533L28.9169 30.2549Z" fill="white"></path>
</g>
</g>
<defs>
<clipPath id="clip0_3542_509">
<rect width="48.3254" height="48" fill="white"></rect>
</clipPath>
</defs>
</svg>