<svg width="53" height="47" viewBox="0 0 53 47" fill="none" xmlns="http://www.w3.org/2000/svg">
<path d="M52.9399 38.8733C52.9399 43.3616 41.0889 47.0001 26.4699 47.0001C11.851 47.0001 0 43.3616 0 38.8733C0 34.385 11.851 30.7466 26.4699 30.7466C41.0889 30.7466 52.9399 34.385 52.9399 38.8733ZM2.00254 38.8733C2.00254 43.022 12.957 46.3852 26.4699 46.3852C39.9829 46.3852 50.9374 43.022 50.9374 38.8733C50.9374 34.7246 39.9829 31.3614 26.4699 31.3614C12.957 31.3614 2.00254 34.7246 2.00254 38.8733Z" fill="url(#paint0_linear_3542_535)"></path>
<path d="M20.1173 5.07134C20.2612 4.86562 20.5336 4.79527 20.7579 4.90533L29.0382 8.96197C29.1968 9.03958 29.3028 9.19478 29.3204 9.37017C29.3334 9.50566 29.3482 9.69438 29.3565 9.90631C29.377 10.5063 28.9451 11.0134 28.5694 11.3301C27.9128 11.8841 27.0345 12.1753 26.2042 12.0997C25.5972 12.0435 24.1585 11.2086 23.3937 10.6963C23.1722 10.5456 22.8671 10.5982 22.7022 10.8145L21.2511 12.7628C21.1647 12.8793 21.1315 13.0269 21.1603 13.169C21.19 13.311 21.2786 13.4344 21.4034 13.5069C21.4053 13.5078 22.0566 13.8847 22.9562 14.4239C23.7559 14.9027 25.4641 16.5287 26.463 18.2139C27.1014 19.291 26.7806 18.5947 27.1788 19.8155C27.2164 20.0597 27.2553 20.0741 27.2999 20.3253C27.3798 20.6221 27.4241 20.8084 27.4474 20.9151C27.5198 21.0318 27.6085 21.1298 27.7091 21.1485C27.977 21.1931 28.2502 21.2474 28.3009 20.9717C28.4058 20.4522 28.3664 20.5288 28.3009 20.1485C28.2586 19.9033 28.2203 19.8955 28.1827 19.6573C27.9414 18.8269 28.1734 19.2909 27.338 17.6954C26.3308 15.9977 24.5305 14.1816 23.4786 13.5518C23.0519 13.2955 22.6803 13.0748 22.4063 12.9141L23.2335 11.8038C23.9258 12.2374 25.293 13.0365 26.1095 13.1124C26.813 13.169 27.5265 13.0565 28.1349 12.7501L28.0187 12.8829C27.5716 13.5469 28.1576 14.1835 28.3155 14.4932C28.3309 14.5192 28.6789 15.0964 29.2394 15.6026C29.7958 16.1057 30.2831 16.3464 30.3175 16.3633C30.5339 16.4609 30.8105 16.586 31.1202 16.586C31.2451 16.586 31.3752 16.5634 31.5089 16.5128C31.4425 16.8894 31.5887 17.2681 31.669 17.4669C31.6806 17.4914 31.9437 18.0242 32.3956 18.5128C32.8382 18.9901 33.2315 19.2337 33.2872 19.2676C33.4827 19.3777 33.7587 19.5342 34.0841 19.5342C34.2949 19.5342 34.5957 19.4853 34.8399 19.3028L38.5802 16.2647C38.7469 16.626 38.774 17.1187 38.4044 18.5411C37.9758 20.1906 37.579 20.718 36.6554 22.5333C35.6574 24.4933 34.1476 26.3272 34.1476 26.3272L33.7276 40.3448L33.6915 41.5391H18.9981C18.8449 41.5391 18.7007 41.4705 18.6046 41.3526C18.5071 41.2342 18.4695 41.0797 18.4991 40.9297L21.6212 25.587L14.3194 13.9229C14.2115 13.7503 14.2173 13.5289 14.3331 13.3624L20.1173 5.07134ZM37.2169 11.3213C37.4551 11.1059 37.8011 11.1244 38.0714 11.3575C38.0802 11.3658 38.5998 11.8547 38.9806 12.2764C39.3994 12.7403 39.8517 13.3145 39.8517 13.3145C40.0564 13.5996 40.0987 14.0331 39.8604 14.2481L34.6095 18.5499C34.3254 18.7619 34.108 18.6839 33.7452 18.4756C33.7452 18.4756 33.3975 18.2625 33.0069 17.8409C32.6184 17.4213 32.391 16.9606 32.3888 16.9561C32.268 16.6608 32.1624 16.3176 32.4005 16.1026L37.2169 11.3213ZM34.3106 6.70123C34.5777 6.41289 34.9875 6.38526 35.3214 6.62115C35.3351 6.63179 35.9792 7.13179 36.4552 7.5733C36.9786 8.05879 37.5482 8.66902 37.5509 8.67193C37.8109 8.97889 37.8897 9.48316 37.6222 9.77154L31.7003 15.6085C31.3791 15.9003 31.1171 15.84 30.6749 15.6465C30.6749 15.6465 30.2517 15.446 29.7628 15.0049C29.2738 14.5638 28.9747 14.0499 28.9747 14.0499C28.8127 13.7188 28.6653 13.3294 28.9327 13.0411L34.3106 6.70123ZM29.6202 3.29595C29.8617 2.99275 30.2811 2.95043 30.6554 3.17974C30.6554 3.17974 31.3908 3.67406 31.9425 4.11236C32.5375 4.58605 33.1952 5.18275 33.2091 5.19537C33.5156 5.5 33.6586 6.01271 33.4171 6.31549L30.2276 10.0919C30.2235 9.81044 30.2088 9.53454 30.1847 9.28424L30.1378 8.80377C30.1201 8.62791 30.0143 8.47308 29.8556 8.39556L26.8907 6.94341L29.6202 3.29595ZM24.8175 0.303767C25.025 -0.0100763 25.4275 -0.0871513 25.8087 0.102595C25.8087 0.102595 26.5622 0.519047 27.1329 0.89654C27.7547 1.30798 28.4503 1.83599 28.4503 1.83599C28.7721 2.10394 28.9528 2.58751 28.7452 2.90142L26.1495 6.58599L22.1407 4.62213L24.8175 0.303767Z" fill="#A3171D"></path>
<defs>
<linearGradient id="paint0_linear_3542_535" x1="26.42" y1="30.8443" x2="26.4699" y2="41.539" gradientUnits="userSpaceOnUse">
<stop stop-color="#A3171D" stop-opacity="0"></stop>
<stop offset="1" stop-color="#A3171D"></stop>
</linearGradient>
</defs>
</svg>