<svg width="135" height="38" viewBox="0 0 135 38" fill="none" xmlns="http://www.w3.org/2000/svg">
<path d="M111.011 29.7431C110.897 29.7431 110.829 29.6517 110.874 29.5602L112.177 25.9031L107.514 14.2688C107.469 14.1545 107.537 14.0859 107.651 14.0859H109.663C109.754 14.0859 109.823 14.1317 109.846 14.2231L113.183 23.1602L116.04 14.2231C116.063 14.1317 116.131 14.0859 116.223 14.0859H118.051C118.166 14.0859 118.211 14.1774 118.166 14.2688L112.84 29.6059C112.817 29.6745 112.749 29.7431 112.657 29.7431H111.011Z" fill="white" fill-opacity="0.4"></path>
<path d="M102.305 20.9659L99.3562 25.7431C99.3105 25.8345 99.2419 25.8574 99.1733 25.8574H97.3448C97.2305 25.8574 97.1619 25.7659 97.2305 25.6745L101.048 19.6174L97.5505 14.2688C97.4819 14.1774 97.5276 14.0859 97.6419 14.0859H99.6762C99.7448 14.0859 99.8133 14.1088 99.8591 14.2002L102.533 18.4974L105.116 14.2002C105.162 14.1088 105.253 14.0859 105.322 14.0859H107.082C107.196 14.0859 107.265 14.1774 107.196 14.2688L103.768 19.7088L107.585 25.6745C107.653 25.7659 107.585 25.8574 107.47 25.8574H105.436C105.368 25.8574 105.299 25.8345 105.253 25.7431L102.305 20.9659Z" fill="white" fill-opacity="0.4"></path>
<path d="M94.414 15.8689L94.3683 14.246C94.3683 14.1546 94.4369 14.086 94.5283 14.086H96.3112C96.4026 14.086 96.4712 14.1546 96.4712 14.246L96.4254 19.846L96.4712 25.6974C96.4712 25.7889 96.4026 25.8574 96.3112 25.8574H94.5512C94.4597 25.8574 94.3912 25.7889 94.3912 25.6974L94.4369 23.9603C93.6369 25.286 92.3797 26.086 90.6654 26.086C87.4883 26.086 85.7969 23.4117 85.7969 20.006C85.7969 16.6003 87.6026 13.8574 90.7112 13.8574C92.3569 13.8574 93.6369 14.566 94.414 15.8689ZM91.1912 24.6231C93.2254 24.6231 94.4597 23.0917 94.4826 20.0746C94.5054 17.0574 93.3169 15.3203 91.2369 15.2974C88.974 15.2746 87.9226 17.1717 87.9226 19.846C87.9226 22.6803 88.974 24.646 91.1912 24.6231Z" fill="white" fill-opacity="0.4"></path>
<path d="M84.5499 17.7431L84.6185 25.6974C84.6185 25.7889 84.5499 25.8574 84.4585 25.8574H82.6756C82.5842 25.8574 82.5156 25.7889 82.5156 25.6974L82.5842 17.766L82.5156 10.0174C82.5156 9.92599 82.5842 9.85742 82.6756 9.85742H84.4585C84.5499 9.85742 84.6185 9.92599 84.6185 10.0174L84.5499 17.7431Z" fill="white" fill-opacity="0.4"></path>
<path d="M78.9453 15.8689L78.8996 14.246C78.8996 14.1546 78.9681 14.086 79.0596 14.086H80.8424C80.9338 14.086 81.0024 14.1546 81.0024 14.246L80.9567 19.846L81.0024 25.6974C81.0024 25.7889 80.9338 25.8574 80.8424 25.8574H79.0824C78.991 25.8574 78.9224 25.7889 78.9224 25.6974L78.9681 23.9603C78.1681 25.286 76.911 26.086 75.1967 26.086C72.0196 26.086 70.3281 23.4117 70.3281 20.006C70.3281 16.6003 72.1338 13.8574 75.2424 13.8574C76.8881 13.8574 78.1681 14.566 78.9453 15.8689ZM75.7224 24.6231C77.7567 24.6231 78.991 23.0917 79.0138 20.0746C79.0367 17.0574 77.8481 15.3203 75.7681 15.2974C73.5053 15.2746 72.4538 17.1717 72.4538 19.846C72.4538 22.6803 73.5053 24.646 75.7224 24.6231Z" fill="white" fill-opacity="0.4"></path>
<path d="M67.1964 14.2461C67.1964 14.1546 67.265 14.0861 67.3564 14.0861H69.1393C69.2307 14.0861 69.2993 14.1546 69.2993 14.2461L69.2307 18.6803L69.2536 25.0118C69.2764 28.4403 67.3793 30.3375 64.0193 30.3375C61.3221 30.3603 59.1507 29.2175 58.945 26.6575C58.945 26.5661 59.0136 26.4975 59.105 26.4975H60.865C60.9564 26.4975 61.025 26.5432 61.0479 26.6575C61.2079 28.1889 62.3964 28.8975 64.065 28.8975C65.985 28.8975 67.3107 27.7089 67.3107 24.9889V23.7318C66.5564 25.0346 65.2993 25.7889 63.6536 25.7889C60.3621 25.7889 58.625 23.2975 58.625 19.9375C58.625 16.6003 60.4079 13.9032 63.585 13.9032C65.2307 13.9032 66.4879 14.5889 67.265 15.8918L67.1964 14.2461ZM64.1107 24.3946C66.0307 24.3718 67.2879 22.9775 67.3107 20.0289C67.3336 17.0575 66.145 15.3203 64.065 15.2975C61.8479 15.2746 60.7507 17.1032 60.7507 19.8689C60.7507 22.7489 61.8707 24.4175 64.1107 24.3946Z" fill="white" fill-opacity="0.4"></path>
<path d="M20.3828 7.74121H42.6805V30.6364C45.5335 27.7066 47.2985 23.6596 47.2985 19.1891C47.2985 10.2477 40.239 3 31.5325 3C22.8258 3 15.7656 10.248 15.7656 19.1891C15.7656 23.6595 17.5306 27.7059 20.3836 30.6354L20.3828 7.74121Z" fill="white" fill-opacity="0.4"></path>
<path d="M20.0625 30.6364V35H42.9955V30.6364H20.0625Z" fill="white" fill-opacity="0.4"></path>
</svg>