<svg width="176" height="38" viewBox="0 0 176 38" fill="none" xmlns="http://www.w3.org/2000/svg">
<path fill-rule="evenodd" clip-rule="evenodd" d="M62.8402 23.9923L61.3498 22.4829C60.7837 23.0112 60.2115 23.4295 59.6327 23.7378C59.0543 24.0458 58.3624 24.1997 57.5576 24.1997C56.9286 24.1997 56.347 24.0773 55.8125 23.832C55.2779 23.5866 54.8157 23.2504 54.4257 22.8225C54.0357 22.3949 53.7341 21.895 53.52 21.3228C53.3062 20.7507 53.1996 20.1372 53.1996 19.4836C53.1996 18.8295 53.3062 18.2194 53.52 17.6533C53.7341 17.0875 54.0357 16.594 54.4257 16.1724C54.8157 15.7512 55.2779 15.4181 55.8125 15.1727C56.347 14.9276 56.9286 14.8049 57.5576 14.8049C58.3121 14.8049 58.9851 14.9558 59.5762 15.2577C60.1675 15.5593 60.7272 15.9556 61.2551 16.4461L62.7457 14.7296C62.4313 14.4277 62.0981 14.151 61.7458 13.8993C61.3938 13.6478 61.0102 13.4307 60.5951 13.2485C60.1799 13.066 59.724 12.9247 59.2271 12.8242C58.7303 12.7234 58.1799 12.673 57.5764 12.673C56.5702 12.673 55.6521 12.8524 54.822 13.2108C53.9917 13.5692 53.2749 14.0596 52.6711 14.6822C52.0674 15.3048 51.599 16.031 51.2655 16.8612C50.9321 17.6913 50.7656 18.578 50.7656 19.5213C50.7656 20.477 50.9354 21.37 51.275 22.2002C51.6145 23.03 52.0831 23.75 52.6806 24.3601C53.278 24.9699 53.9853 25.451 54.8029 25.8033C55.6205 26.1555 56.5137 26.3315 57.482 26.3315C58.0985 26.3315 58.6613 26.278 59.1706 26.1711C59.68 26.0642 60.1486 25.9072 60.5762 25.6997C61.0039 25.492 61.4033 25.2466 61.7744 24.9638C62.1452 24.6808 62.5006 24.3568 62.8402 23.9923Z" fill="white" fill-opacity="0.4"></path>
<path fill-rule="evenodd" clip-rule="evenodd" d="M92.78 16.4123C92.78 15.973 92.9676 15.5997 93.343 15.2924C93.7182 14.9847 94.2437 14.831 94.9192 14.831C95.5197 14.831 96.1138 14.9473 96.7016 15.1794C97.2898 15.4115 97.8839 15.7473 98.4841 16.1863L99.7226 14.4359C99.0474 13.8963 98.3249 13.4854 97.5555 13.2032C96.7859 12.9209 95.9199 12.7797 94.9566 12.7797C94.3063 12.7797 93.7058 12.8706 93.1584 13.0527C92.6081 13.2345 92.1392 13.4948 91.7481 13.8335C91.3572 14.1725 91.0506 14.5771 90.8256 15.0476C90.6036 15.5182 90.4909 16.0421 90.4909 16.6193C90.4909 17.2341 90.5879 17.755 90.7818 18.1816C90.9757 18.6082 91.2602 18.9721 91.6294 19.2733C91.9982 19.5744 92.458 19.8253 93.002 20.0262C93.5493 20.2271 94.1719 20.4087 94.8754 20.572C95.4885 20.7225 95.9854 20.8668 96.3703 21.0047C96.7518 21.1428 97.052 21.2904 97.2741 21.447C97.4928 21.604 97.6431 21.7764 97.7244 21.9646C97.8057 22.153 97.8461 22.3661 97.8461 22.6045C97.8461 23.1193 97.6368 23.5271 97.2178 23.828C96.7986 24.1294 96.2325 24.2798 95.5196 24.2798C94.6941 24.2798 93.9559 24.1322 93.3056 23.8375C92.6549 23.5426 92.0109 23.1193 91.3726 22.567L89.9844 24.2234C90.7724 24.9386 91.6294 25.4687 92.5549 25.8139C93.4807 26.159 94.4501 26.3314 95.4632 26.3314C96.1513 26.3314 96.7832 26.2436 97.3586 26.0681C97.9307 25.8921 98.4249 25.6349 98.8315 25.2961C99.2411 24.9573 99.5601 24.5434 99.7914 24.054C100.02 23.5647 100.136 23.0063 100.136 22.3788C100.136 21.8267 100.045 21.3467 99.8633 20.9389C99.6818 20.5311 99.413 20.1738 99.0629 19.866C98.7125 19.5587 98.2685 19.2981 97.7368 19.0849C97.2054 18.8718 96.5923 18.6773 95.9042 18.5015C95.2756 18.3509 94.7597 18.2065 94.3501 18.0685C93.9435 17.9307 93.6245 17.7801 93.3898 17.6168C93.1584 17.4537 92.9992 17.278 92.9114 17.0899C92.824 16.9014 92.78 16.6757 92.78 16.4123Z" fill="white" fill-opacity="0.4"></path>
<path fill-rule="evenodd" clip-rule="evenodd" d="M118.465 16.5989V26.0114H120.757V12.8865H118.295L114.293 19.0927L110.29 12.8865H107.828V26.0114H110.121V16.6364L114.236 22.7864H114.311L118.465 16.5989Z" fill="white" fill-opacity="0.4"></path>
<path fill-rule="evenodd" clip-rule="evenodd" d="M140.012 19.5213C140.012 20.1627 139.902 20.7695 139.682 21.3419C139.462 21.9141 139.158 22.4107 138.769 22.8319C138.38 23.2532 137.912 23.5866 137.366 23.832C136.819 24.0773 136.22 24.1998 135.568 24.1998C134.914 24.1998 134.312 24.074 133.76 23.8226C133.208 23.5708 132.733 23.2313 132.338 22.8039C131.943 22.3761 131.635 21.8762 131.415 21.304C131.196 20.7319 131.086 20.1248 131.086 19.4836C131.086 18.8419 131.196 18.2352 131.415 17.663C131.635 17.0906 131.939 16.594 132.329 16.1725C132.718 15.7512 133.185 15.4181 133.731 15.1727C134.277 14.9276 134.877 14.8049 135.53 14.8049C136.182 14.8049 136.785 14.9306 137.338 15.1824C137.89 15.4338 138.364 15.7734 138.759 16.201C139.155 16.6283 139.462 17.1285 139.682 17.7007C139.902 18.2728 140.012 18.8799 140.012 19.5213ZM142.44 19.4836C142.44 18.5528 142.271 17.6724 141.932 16.8421C141.593 16.0124 141.123 15.289 140.52 14.6728C139.917 14.0563 139.196 13.5692 138.354 13.2108C137.513 12.8524 136.584 12.673 135.568 12.673C134.55 12.673 133.622 12.8555 132.78 13.2202C131.939 13.585 131.211 14.0785 130.596 14.7011C129.981 15.3236 129.504 16.05 129.165 16.8801C128.826 17.7101 128.656 18.5905 128.656 19.5213C128.656 20.4518 128.826 21.332 129.165 22.1623C129.504 22.9925 129.975 23.7157 130.577 24.3318C131.179 24.9481 131.901 25.4355 132.743 25.7939C133.584 26.1523 134.513 26.3315 135.53 26.3315C136.546 26.3315 137.476 26.149 138.316 25.7844C139.158 25.4197 139.886 24.9262 140.501 24.3034C141.117 23.681 141.593 22.9546 141.932 22.1246C142.271 21.2946 142.44 20.4142 142.44 19.4836Z" fill="white" fill-opacity="0.4"></path>
<path fill-rule="evenodd" clip-rule="evenodd" d="M152.077 16.4123C152.077 15.973 152.264 15.5997 152.64 15.2924C153.015 14.9847 153.54 14.831 154.216 14.831C154.817 14.831 155.411 14.9473 155.998 15.1794C156.587 15.4115 157.181 15.7473 157.781 16.1863L159.019 14.4359C158.344 13.8963 157.622 13.4854 156.852 13.2032C156.083 12.9209 155.217 12.7797 154.254 12.7797C153.603 12.7797 153.003 12.8706 152.455 13.0527C151.905 13.2345 151.436 13.4948 151.045 13.8335C150.654 14.1725 150.348 14.5771 150.122 15.0476C149.901 15.5182 149.788 16.0421 149.788 16.6193C149.788 17.2341 149.885 17.755 150.079 18.1816C150.273 18.6082 150.557 18.9721 150.926 19.2733C151.295 19.5744 151.755 19.8253 152.299 20.0262C152.846 20.2271 153.468 20.4087 154.172 20.572C154.785 20.7225 155.283 20.8668 155.667 21.0047C156.049 21.1428 156.349 21.2904 156.571 21.447C156.79 21.604 156.94 21.7764 157.021 21.9646C157.103 22.153 157.144 22.3661 157.144 22.6045C157.144 23.1193 156.934 23.5271 156.515 23.828C156.096 24.1294 155.53 24.2798 154.817 24.2798C153.991 24.2798 153.252 24.1322 152.602 23.8375C151.952 23.5426 151.308 23.1193 150.67 22.567L149.281 24.2234C150.069 24.9386 150.926 25.4687 151.852 25.8139C152.778 26.159 153.747 26.3314 154.76 26.3314C155.448 26.3314 156.08 26.2436 156.655 26.0681C157.228 25.8921 157.722 25.6349 158.128 25.2961C158.538 24.9573 158.857 24.5434 159.088 24.054C159.316 23.5647 159.432 23.0063 159.432 22.3788C159.432 21.8267 159.341 21.3467 159.16 20.9389C158.979 20.5311 158.71 20.1738 158.359 19.866C158.01 19.5587 157.565 19.2981 157.034 19.0849C156.502 18.8718 155.889 18.6773 155.201 18.5015C154.573 18.3509 154.057 18.2065 153.647 18.0685C153.24 17.9307 152.922 17.7801 152.687 17.6168C152.455 17.4537 152.296 17.278 152.209 17.0899C152.121 16.9014 152.077 16.6757 152.077 16.4123Z" fill="white" fill-opacity="0.4"></path>
<path fill-rule="evenodd" clip-rule="evenodd" d="M78.5628 15.514L72.2809 21.7874C72.1999 21.6305 72.1268 21.4669 72.0613 21.2973C71.8419 20.7273 71.7322 20.1225 71.7322 19.4838C71.7322 18.8446 71.8419 18.24 72.0613 17.67C72.2809 17.0998 72.5851 16.6051 72.9741 16.1851C73.3631 15.7655 73.8306 15.4336 74.3762 15.1891C74.9222 14.945 75.5211 14.8227 76.1734 14.8227C76.826 14.8227 77.4283 14.948 77.9801 15.1988C78.1852 15.2918 78.3795 15.3968 78.5628 15.514ZM78.0085 23.8157C77.4626 24.0601 76.8636 24.1821 76.2113 24.1821C75.5587 24.1821 74.9565 24.0569 74.4044 23.8063C74.1995 23.713 74.0053 23.6081 73.8222 23.4906L80.1039 17.2177C80.1848 17.3744 80.258 17.5377 80.3234 17.7075C80.5428 18.2776 80.6526 18.8823 80.6526 19.5213C80.6526 20.1603 80.5428 20.7648 80.3234 21.3351C80.1039 21.9051 79.7996 22.3998 79.4106 22.8195C79.0216 23.2391 78.5544 23.5713 78.0085 23.8157ZM78.9589 25.7608C79.7996 25.3975 80.5273 24.9058 81.1421 24.2853C81.7568 23.6653 82.2334 22.9416 82.5722 22.1148C82.9111 21.288 83.0805 20.4108 83.0805 19.4838C83.0805 18.5565 82.9111 17.6794 82.5722 16.8523C82.3713 16.3619 82.124 15.909 81.8304 15.4934L85.9162 11.4133L84.2927 9.79199L80.1945 13.8845C79.8265 13.634 79.4271 13.4175 78.9965 13.2347C78.1558 12.8776 77.2275 12.6989 76.2113 12.6989C75.1949 12.6989 74.2665 12.8807 73.4258 13.244C72.5851 13.6074 71.8574 14.0991 71.2426 14.7193C70.6279 15.3395 70.1511 16.0632 69.8123 16.8901C69.4736 17.717 69.3042 18.594 69.3042 19.5213C69.3042 20.4483 69.4736 21.3252 69.8123 22.1524C70.0134 22.643 70.2607 23.0958 70.5543 23.5117L66.4688 27.5913L68.0923 29.2126L72.1903 25.1203C72.5582 25.3708 72.9576 25.5874 73.3882 25.7702C74.229 26.1273 75.1573 26.3057 76.1734 26.3057C77.1899 26.3057 78.1182 26.1239 78.9589 25.7608Z" fill="white" fill-opacity="0.4"></path>
<path fill-rule="evenodd" clip-rule="evenodd" d="M30.2218 3.85186C30.0765 3.71818 30.0016 3.71565 29.989 3.71565C29.9764 3.71565 29.9014 3.71818 29.7562 3.85186C29.6071 3.98908 29.4288 4.22584 29.2368 4.59115C28.8534 5.3203 28.4866 6.4224 28.1704 7.84448C27.8148 9.44369 27.5338 11.3984 27.3565 13.5864C28.2127 14.0007 29.0932 14.4511 29.9888 14.9347C30.8845 14.451 31.7651 14.0006 32.6214 13.5862C32.4441 11.3982 32.1632 9.44365 31.8076 7.84448C31.4914 6.4224 31.1245 5.3203 30.7412 4.59115C30.5492 4.22584 30.3709 3.98908 30.2218 3.85186ZM29.2394 15.3452C28.5817 14.9957 27.9337 14.6651 27.2993 14.3545C27.2512 15.0589 27.2137 15.785 27.1877 16.529C27.5233 16.328 27.8637 16.1279 28.2088 15.9288C28.5538 15.7297 28.8975 15.5351 29.2394 15.3452ZM26.6658 13.2576C27.1796 7.25747 28.4738 3 29.989 3C31.5042 3 32.7983 7.25736 33.3122 13.2574C38.7684 10.7022 43.1046 9.69359 43.8623 11.005C44.6199 12.3164 41.5776 15.5651 36.6352 19.0098C41.5776 22.4545 44.6199 25.7032 43.8623 27.0146C43.1046 28.326 38.7684 27.3175 33.3122 24.7622C32.7983 30.7623 31.5042 35.0196 29.989 35.0196C28.4738 35.0196 27.1796 30.7622 26.6658 24.7621C21.2094 27.3174 16.8729 28.3261 16.1153 27.0146C15.3576 25.7032 18.3998 22.4545 23.3423 19.0098C18.3998 15.5651 15.3576 12.3164 16.1153 11.005C16.8729 9.69356 21.2094 10.7022 26.6658 13.2576ZM23.9729 18.5763C22.1653 17.3287 20.6118 16.1081 19.4037 15.0006C18.3294 14.0159 17.5578 13.1473 17.1176 12.4509C16.897 12.1021 16.781 11.8294 16.7367 11.6319C16.6935 11.4395 16.7288 11.3736 16.7349 11.363C16.7411 11.3523 16.7807 11.2887 16.9692 11.2298C17.1628 11.1693 17.4572 11.1334 17.8699 11.1498C18.6935 11.1827 19.8321 11.4162 21.2226 11.8536C22.7863 12.3455 24.6206 13.0796 26.6054 14.0202C26.5363 14.9682 26.4864 15.9553 26.4577 16.9721C25.5907 17.5055 24.7601 18.0423 23.9729 18.5763ZM23.9729 19.4434C22.1653 20.6909 20.6118 21.9115 19.4037 23.019C18.3294 24.0037 17.5578 24.8723 17.1176 25.5687C16.897 25.9176 16.781 26.1902 16.7367 26.3877C16.6935 26.5802 16.7288 26.646 16.7349 26.6566C16.7411 26.6673 16.7806 26.7309 16.9692 26.7898C17.1628 26.8503 17.4572 26.8862 17.8699 26.8698C18.6935 26.8369 19.8321 26.6034 21.2226 26.166C22.7863 25.6742 24.6206 24.94 26.6054 23.9994C26.5363 23.0514 26.4864 22.0643 26.4577 21.0475C25.5907 20.5142 24.7601 19.9773 23.9729 19.4434ZM26.4387 20.1938C25.8069 19.7992 25.1963 19.4037 24.6098 19.0098C25.1963 18.6159 25.8069 18.2204 26.4387 17.8258C26.4323 18.2168 26.4291 18.6116 26.4291 19.0098C26.4291 19.408 26.4323 19.8029 26.4387 20.1938ZM27.1632 20.6401C27.151 20.1044 27.1448 19.5606 27.1448 19.0098C27.1448 18.459 27.151 17.9152 27.1632 17.3795C27.6212 17.1012 28.0893 16.8239 28.5664 16.5486C29.0438 16.2732 29.5184 16.0066 29.9888 15.7492C30.4591 16.0066 30.9337 16.2732 31.4111 16.5486C31.8884 16.8241 32.3566 17.1014 32.8148 17.3798C32.8269 17.9154 32.8332 18.4591 32.8332 19.0098C32.8332 19.5605 32.8269 20.1043 32.8148 20.6398C32.3566 20.9182 31.8884 21.1956 31.4111 21.471C30.9337 21.7464 30.4591 22.013 29.9888 22.2704C29.5184 22.013 29.0438 21.7464 28.5665 21.471C28.0893 21.1957 27.6212 20.9184 27.1632 20.6401ZM27.1877 21.4906C27.2137 22.2346 27.2512 22.9607 27.2993 23.6651C27.9337 23.3545 28.5817 23.0239 29.2394 22.6745C28.8975 22.4845 28.5538 22.2899 28.2088 22.0908C27.8637 21.8918 27.5233 21.6916 27.1877 21.4906ZM29.9888 23.0849C29.0932 23.5685 28.2127 24.0189 27.3565 24.4331C27.5338 26.6213 27.8148 28.5759 28.1704 30.1751C28.4866 31.5972 28.8534 32.6993 29.2368 33.4285C29.4288 33.7938 29.6071 34.0305 29.7562 34.1677C29.9014 34.3014 29.9764 34.304 29.989 34.304C30.0016 34.304 30.0765 34.3014 30.2218 34.1677C30.3709 34.0305 30.5492 33.7938 30.7412 33.4285C31.1245 32.6993 31.4914 31.5972 31.8076 30.1751C32.1632 28.576 32.4441 26.6214 32.6214 24.4334C31.7651 24.019 30.8845 23.5686 29.9888 23.0849ZM33.3726 23.9996C35.3571 24.9401 37.1914 25.6742 38.7549 26.166C40.1454 26.6034 41.284 26.8369 42.1077 26.8698C42.5203 26.8862 42.8147 26.8503 43.0083 26.7898C43.1969 26.7309 43.2364 26.6673 43.2426 26.6566C43.2487 26.6461 43.284 26.5802 43.2408 26.3877C43.1965 26.1902 43.0805 25.9176 42.8599 25.5687C42.4197 24.8723 41.6481 24.0037 40.5738 23.019C39.3657 21.9115 37.8122 20.6909 36.0046 19.4434C35.2175 19.9772 34.3871 20.514 33.5203 21.0472C33.4916 22.0642 33.4417 23.0514 33.3726 23.9996ZM36.0046 18.5763C37.8122 17.3287 39.3657 16.1081 40.5738 15.0006C41.6481 14.0159 42.4197 13.1473 42.8599 12.4509C43.0805 12.1021 43.1965 11.8294 43.2408 11.6319C43.284 11.4394 43.2487 11.3736 43.2426 11.363C43.2364 11.3523 43.1969 11.2887 43.0083 11.2298C42.8147 11.1693 42.5203 11.1334 42.1077 11.1498C41.284 11.1827 40.1454 11.4162 38.7549 11.8536C37.1914 12.3454 35.3571 13.0795 33.3726 14.02C33.4417 14.9682 33.4916 15.9554 33.5203 16.9723C34.3871 17.5056 35.2175 18.0424 36.0046 18.5763ZM33.5393 17.8261C34.1709 18.2205 34.7814 18.616 35.3677 19.0098C34.7814 19.4036 34.1709 19.7991 33.5393 20.1935C33.5456 19.8027 33.5489 19.4079 33.5489 19.0098C33.5489 18.6117 33.5456 18.2169 33.5393 17.8261ZM32.7903 16.5293C32.7643 15.7851 32.7268 15.0589 32.6787 14.3543C32.0441 14.6649 31.396 14.9956 30.7381 15.3452C31.08 15.5351 31.4237 15.7297 31.7687 15.9288C32.1139 16.1279 32.4546 16.3282 32.7903 16.5293ZM32.6787 23.6654C32.0441 23.3547 31.396 23.024 30.7381 22.6745C31.08 22.4845 31.4237 22.2899 31.7687 22.0908C32.1139 21.8917 32.4546 21.6914 32.7903 21.4903C32.7643 22.2345 32.7268 22.9608 32.6787 23.6654Z" fill="white" fill-opacity="0.4"></path>
<path fill-rule="evenodd" clip-rule="evenodd" d="M19.7586 14.5264C20.3804 14.5264 20.8844 15.0307 20.8844 15.6527C20.8844 16.2748 20.3804 16.7791 19.7586 16.7791C19.1368 16.7791 18.6328 16.2748 18.6328 15.6527C18.6328 15.0307 19.1368 14.5264 19.7586 14.5264Z" fill="white" fill-opacity="0.4"></path>
<path fill-rule="evenodd" clip-rule="evenodd" d="M37.6498 10.6689C38.2719 10.6689 38.7762 11.1732 38.7762 11.7953C38.7762 12.4174 38.2719 12.9217 37.6498 12.9217C37.0277 12.9217 36.5234 12.4174 36.5234 11.7953C36.5234 11.1732 37.0277 10.6689 37.6498 10.6689Z" fill="white" fill-opacity="0.4"></path>
<path fill-rule="evenodd" clip-rule="evenodd" d="M27.7201 28.3486C28.3422 28.3486 28.8465 28.8527 28.8465 29.4745C28.8465 30.0962 28.3422 30.6003 27.7201 30.6003C27.098 30.6003 26.5938 30.0962 26.5938 29.4745C26.5938 28.8527 27.098 28.3486 27.7201 28.3486Z" fill="white" fill-opacity="0.4"></path>
<path fill-rule="evenodd" clip-rule="evenodd" d="M29.9226 17.0946C30.9758 17.0946 31.8296 17.9484 31.8296 19.0016C31.8296 20.0548 30.9758 20.9086 29.9226 20.9086C28.8694 20.9086 28.0156 20.0548 28.0156 19.0016C28.0156 17.9484 28.8694 17.0946 29.9226 17.0946Z" fill="white" fill-opacity="0.4"></path>
</svg>