<svg width="26" height="32" viewBox="0 0 26 32" fill="none" xmlns="http://www.w3.org/2000/svg">
<path d="M17.541 5.08183C16.4159 6.41324 14.6157 7.46336 12.8155 7.31334C12.5904 5.51313 13.4718 3.60041 14.5032 2.41903C15.6283 1.05012 17.5973 0.0750086 19.1912 0C19.3787 1.87522 18.6474 3.71293 17.541 5.08183ZM19.1724 7.66963C16.5659 7.51961 14.3344 9.15105 13.0968 9.15105C11.8404 9.15105 9.94639 7.74464 7.88366 7.78214C5.2021 7.81965 2.70806 9.33857 1.33916 11.7576C-1.47367 16.5957 0.607822 23.759 3.32688 27.6969C4.65829 29.6472 6.25222 31.7849 8.35246 31.7099C10.3402 31.6349 11.1278 30.416 13.5281 30.416C15.9471 30.416 16.6409 31.7099 18.7411 31.6724C20.9164 31.6349 22.2853 29.7222 23.6167 27.7719C25.1356 25.5592 25.7545 23.4027 25.792 23.2902C25.7545 23.2527 21.5915 21.6587 21.554 16.8582C21.5165 12.8452 24.8356 10.9325 24.9856 10.82C23.1104 8.04467 20.1851 7.74464 19.1724 7.66963Z" fill="black"></path>
</svg>