<svg width="40" height="33" viewBox="0 0 40 33" fill="none" xmlns="http://www.w3.org/2000/svg">
<path d="M34.4235 5.68703C31.7998 5.15614 27.5694 4.43815 26.3875 6.90797C22.7754 13.1644 20.7016 19.7124 19.1406 22.5219C19.3046 22.6166 26.4992 26.7909 27.0081 27.0378C28.6256 27.8227 31.3259 27.4695 32.4763 25.3947C35.6676 19.6391 34.8564 21.1375 38.2472 15.2647C40.4383 11.4695 37.6988 6.34965 34.4235 5.68703Z" fill="#EA4335"></path>
<path d="M11.7132 31.0865C9.95144 29.0711 8.65909 25.0388 10.2071 22.7806C14.7294 14.9475 18.3496 10.2057 21.1968 5.45264C22.7065 6.32434 28.7557 9.75561 29.1585 10.1092C30.51 11.2947 31.6296 13.5601 30.408 15.5937C27.0191 21.2353 25.6285 23.7885 22.184 29.7547C19.9924 33.5509 13.9141 33.6045 11.7132 31.0865Z" fill="#FDBD00"></path>
<path d="M27.9444 1.69379C24.4201 -0.365631 22.6086 -0.0957243 20.7133 0.208231C18.9902 0.638958 16.6604 1.89114 15.6783 3.49984C13.2007 7.55787 10.854 11.5734 7.81398 17.015C6.87765 18.691 7.57266 20.7501 8.43676 21.5672C9.02236 22.1213 13.3311 24.4985 14.1261 24.8403C15.2507 25.3238 16.9353 24.9874 17.9514 23.9415C18.2321 23.6526 24.6599 12.6119 26.4701 9.35548C27.2342 7.98132 27.9225 7.22086 29.0651 6.48783C31.2724 5.32952 32.9958 5.18011 35.6356 6.14536C35.6356 6.14536 29.8903 2.81524 27.9444 1.69379Z" fill="#2DA94F"></path>
<path d="M5.2615 27.6044C1.71568 25.582 1.04364 23.8782 0.359203 22.0848C-0.129208 20.3774 -0.209701 17.7335 0.692414 16.0784C2.96819 11.904 2.95183 11.8828 6.14444 6.52915C7.12771 4.88029 9.25853 4.4527 10.3983 4.79236C11.1709 5.02243 15.3839 7.56531 16.0774 8.08298C17.0586 8.81518 17.6095 10.4422 17.2118 11.8453C17.1019 12.2327 13.0744 19.3009 11.1596 22.497C10.3514 23.8457 10.037 24.8218 9.97355 26.1778C10.074 28.6686 10.8062 30.2359 12.9622 32.0394C12.9622 32.0394 7.20555 28.7288 5.2615 27.6044Z" fill="#297AEC"></path>
</svg>