<svg width="33" height="33" viewBox="0 0 33 33" fill="none" xmlns="http://www.w3.org/2000/svg">
<path d="M16.1335 32.267C25.0438 32.267 32.267 25.0438 32.267 16.1335C32.267 7.2232 25.0438 0 16.1335 0C7.2232 0 0 7.2232 0 16.1335C0 25.0438 7.2232 32.267 16.1335 32.267Z" fill="#3E73C4"></path>
<path d="M20.1949 18.2752C20.1949 16.1335 18.9043 15.3995 16.3229 15.0929C14.4796 14.8479 14.1116 14.3588 14.1116 13.5018C14.1116 12.6447 14.7267 12.0941 15.9548 12.0941C17.061 12.0941 17.6761 12.4611 17.9826 13.3797C18.0145 13.4686 18.0729 13.5455 18.1499 13.6001C18.2268 13.6547 18.3187 13.6845 18.4132 13.6853H19.3963C19.4531 13.6868 19.5096 13.6768 19.5624 13.6558C19.6151 13.6349 19.6631 13.6033 19.7034 13.5633C19.7436 13.5232 19.7754 13.4753 19.7965 13.4227C19.8178 13.37 19.8281 13.3135 19.8269 13.2567V13.1962C19.7067 12.5316 19.3704 11.9253 18.8703 11.4715C18.3701 11.0176 17.7341 10.7417 17.061 10.6865V9.21833C17.061 8.9733 16.8765 8.78978 16.5699 8.72827H15.6473C15.4023 8.72827 15.2178 8.91179 15.1562 9.21833V10.626C13.312 10.87 12.1453 12.0941 12.1453 13.6248C12.1453 15.6435 13.3735 16.4391 15.9548 16.7456C17.6761 17.0511 18.2287 17.4192 18.2287 18.3983C18.2287 19.3764 17.3685 20.0499 16.2009 20.0499C14.6027 20.0499 14.0501 19.3774 13.8656 18.4588C13.8051 18.2147 13.6195 18.0917 13.435 18.0917H12.3904C12.3336 18.0903 12.2772 18.1005 12.2246 18.1216C12.1719 18.1425 12.1241 18.1741 12.0838 18.2141C12.0437 18.2542 12.0121 18.302 11.991 18.3546C11.9698 18.4072 11.9595 18.4636 11.9608 18.5203V18.5808C12.2058 20.1114 13.19 21.2125 15.2178 21.5191V22.9882C15.2178 23.2323 15.4023 23.4168 15.7088 23.4773H16.6314C16.8765 23.4773 17.061 23.2938 17.1225 22.9882V21.5181C18.9668 21.2125 20.1949 19.9279 20.1949 18.2752Z" fill="white"></path>
<path d="M13.0041 24.7014C8.21048 22.9872 5.75214 17.6631 7.53489 12.9512C8.45651 10.3799 10.4842 8.4227 13.0041 7.5041C13.2501 7.38209 13.3721 7.19857 13.3721 6.89204V6.03494C13.3721 5.79093 13.2501 5.60741 13.0041 5.5459C12.9426 5.5459 12.8196 5.5459 12.7581 5.6064C11.3751 6.03829 10.0912 6.7395 8.98026 7.66964C7.86936 8.59978 6.95344 9.74048 6.2852 11.026C5.61696 12.3117 5.20962 13.7167 5.08664 15.1603C4.96366 16.604 5.12747 18.0577 5.56862 19.4378C6.67376 22.8662 9.31663 25.498 12.7581 26.5991C13.0041 26.7211 13.2501 26.5991 13.3106 26.354C13.3721 26.2935 13.3721 26.231 13.3721 26.109V25.2519C13.3721 25.0684 13.1886 24.8244 13.0041 24.7014ZM19.518 5.60741C19.2719 5.48439 19.0259 5.60741 18.9654 5.85143C18.9039 5.91293 18.9039 5.97444 18.9039 6.09645V6.95354C18.9039 7.19857 19.0874 7.44259 19.2719 7.56561C24.0656 9.27979 26.5239 14.6038 24.7412 19.3158C23.8196 21.8871 21.7918 23.8443 19.2719 24.7629C19.0259 24.8849 18.9039 25.0684 18.9039 25.375V26.232C18.9039 26.4761 19.0259 26.6596 19.2719 26.7211C19.3335 26.7211 19.4565 26.7211 19.518 26.6606C20.901 26.2287 22.185 25.5275 23.2958 24.5973C24.4067 23.6672 25.3227 22.5265 25.9909 21.2409C26.6592 19.9553 27.0665 18.5503 27.1895 17.1066C27.3125 15.663 27.1486 14.2093 26.7075 12.8292C25.6023 9.34029 22.8979 6.70852 19.518 5.60741Z" fill="white"></path>
</svg>